<?xml version="1.0" encoding="UTF-8"?>
<svg width="512" height="512" viewBox="0 0 512 512" xmlns="http://www.w3.org/2000/svg">
  <rect width="100%" height="100%" fill="#ffffff"/>
  <path d="M 256 64 C 238 64 224 78 224 96 L 176 96 C 158 96 144 110 144 128 L 144 416 C 144 434 158 448 176 448 L 336 448 C 354 448 368 434 368 416 L 368 128 C 368 110 354 96 336 96 L 288 96 C 288 78 274 64 256 64 Z M 256 96 C 260 96 264 100 264 104 C 264 108 260 112 256 112 C 252 112 248 108 248 104 C 248 100 252 96 256 96 Z M 176 128 L 192 128 L 192 160 L 320 160 L 320 128 L 336 128 L 336 416 L 176 416 L 176 128 Z" fill="#2563eb"/>
  <rect x="208" y="208" width="96" height="16" fill="#2563eb"/>
  <rect x="208" y="256" width="96" height="16" fill="#2563eb"/>
  <rect x="208" y="304" width="96" height="16" fill="#2563eb"/>
</svg>
